<svg width="25" height="24" viewBox="0 0 25 24" fill="none" xmlns="http://www.w3.org/2000/svg">
<path fill-rule="evenodd" clip-rule="evenodd" d="M9.462 18.4691C6.519 16.2141 2.5 12.4891 2.5 8.9671C2.5 3.0831 8 0.886097 12.5 5.4301C17 0.886097 22.5 3.0831 22.5 8.9671C22.5 12.4891 18.48 16.2141 15.538 18.4691C14.206 19.4891 13.54 20.0001 12.5 20.0001C11.46 20.0001 10.794 19.4901 9.462 18.4691ZM17 6.2501C17.1989 6.2501 17.3897 6.32912 17.5303 6.46977C17.671 6.61042 17.75 6.80119 17.75 7.0001V8.2501H19C19.1989 8.2501 19.3897 8.32912 19.5303 8.46977C19.671 8.61042 19.75 8.80119 19.75 9.0001C19.75 9.19901 19.671 9.38978 19.5303 9.53043C19.3897 9.67108 19.1989 9.7501 19 9.7501H17.75V11.0001C17.75 11.199 17.671 11.3898 17.5303 11.5304C17.3897 11.6711 17.1989 11.7501 17 11.7501C16.8011 11.7501 16.6103 11.6711 16.4697 11.5304C16.329 11.3898 16.25 11.199 16.25 11.0001V9.7501H15C14.8011 9.7501 14.6103 9.67108 14.4697 9.53043C14.329 9.38978 14.25 9.19901 14.25 9.0001C14.25 8.80119 14.329 8.61042 14.4697 8.46977C14.6103 8.32912 14.8011 8.2501 15 8.2501H16.25V7.0001C16.25 6.80119 16.329 6.61042 16.4697 6.46977C16.6103 6.32912 16.8011 6.2501 17 6.2501Z" fill="#56C364"/>
</svg>
