<svg width="20" height="14" viewBox="0 0 20 14" fill="none" xmlns="http://www.w3.org/2000/svg">
<path d="M6.54 3.54003C6.89 3.89003 6.91 4.42003 6.64 4.83003C6.22308 5.477 6.00136 6.23037 6.00136 7.00003C6.00136 7.7697 6.22308 8.52307 6.64 9.17003C6.91 9.58003 6.88 10.12 6.53 10.46C6.1 10.89 5.36 10.86 5.02 10.35C4.35417 9.35977 3.99902 8.19333 4 7.00003C4 5.79003 4.36 4.67003 4.97 3.72003C5.33 3.18003 6.08 3.08003 6.54 3.54003ZM13.46 10.46C13.89 10.89 14.63 10.86 14.97 10.35C15.6408 9.35976 15.9994 8.19113 15.9994 6.99503C15.9994 5.79894 15.6408 4.6303 14.97 3.64003C14.63 3.14003 13.89 3.10003 13.46 3.53003C13.11 3.88003 13.09 4.41003 13.35 4.82003C13.7724 5.46639 13.9982 6.22142 13.9999 6.99355C14.0017 7.76568 13.7794 8.52174 13.36 9.17003C13.09 9.58003 13.12 10.12 13.46 10.46ZM10 5.00003C8.9 5.00003 8 5.90003 8 7.00003C8 8.10003 8.9 9.00003 10 9.00003C11.1 9.00003 12 8.10003 12 7.00003C12 5.90003 11.1 5.00003 10 5.00003ZM16.32 13.32C16.74 13.74 17.44 13.71 17.82 13.24C19.18 11.53 20 9.36003 20 7.00003C20 4.64003 19.18 2.47003 17.82 0.760034C17.45 0.290034 16.75 0.260034 16.32 0.680034C15.96 1.04003 15.92 1.60003 16.24 2.00003C17.34 3.37003 18 5.11003 18 7.00003C18 8.89003 17.34 10.63 16.24 12C15.92 12.39 15.96 12.96 16.32 13.32ZM3.68 0.680034C3.26 0.260034 2.56 0.290034 2.18 0.760034C0.82 2.47003 0 4.64003 0 7.00003C0 9.36003 0.82 11.53 2.18 13.24C2.55 13.71 3.25 13.74 3.68 13.32C4.04 12.96 4.08 12.4 3.76 12C2.66 10.63 2 8.89003 2 7.00003C2 5.11003 2.66 3.37003 3.76 2.00003C4.08 1.61003 4.04 1.04003 3.68 0.680034Z" fill="#C35656"/>
</svg>
