<svg width="19" height="18" viewBox="0 0 19 18" fill="none" xmlns="http://www.w3.org/2000/svg">
<path d="M5.245 16.4999H13.746C13.936 16.5 14.1189 16.5722 14.2578 16.7019C14.3966 16.8316 14.4811 17.0092 14.494 17.1988C14.507 17.3884 14.4475 17.5758 14.3276 17.7232C14.2077 17.8706 14.0362 17.967 13.848 17.9929L13.746 17.9999H5.245C5.05498 17.9998 4.87206 17.9277 4.73321 17.7979C4.59436 17.6682 4.50993 17.4906 4.49697 17.301C4.48402 17.1114 4.54352 16.924 4.66343 16.7766C4.78335 16.6292 4.95475 16.5328 5.143 16.5069L5.245 16.4999ZM2.25 13.5199H16.75C16.9388 13.5217 17.1201 13.5946 17.2575 13.7242C17.3949 13.8537 17.4783 14.0303 17.4912 14.2187C17.5041 14.4071 17.4454 14.5935 17.3269 14.7405C17.2084 14.8875 17.0388 14.9845 16.852 15.0119L16.75 15.0189H2.25C2.05998 15.0188 1.87706 14.9467 1.73821 14.8169C1.59936 14.6872 1.51493 14.5096 1.50197 14.32C1.48902 14.1304 1.54852 13.943 1.66843 13.7956C1.78835 13.6482 1.95975 13.5518 2.148 13.5259L2.25 13.5199ZM9.5 0.00390625C12.669 0.00390625 14.466 2.10091 14.727 4.63391H14.807C15.2914 4.63312 15.7713 4.7278 16.2191 4.91255C16.6669 5.0973 17.074 5.36849 17.4169 5.71062C17.7599 6.05275 18.0321 6.45912 18.2179 6.90649C18.4037 7.35386 18.4996 7.83347 18.5 8.31791C18.4993 8.80217 18.4033 9.28157 18.2173 9.72871C18.0314 10.1759 17.7592 10.582 17.4162 10.9239C17.0733 11.2658 16.6663 11.5368 16.2186 11.7215C15.7709 11.9061 15.2913 12.0007 14.807 11.9999H4.193C3.70873 12.0007 3.22905 11.9061 2.78136 11.7215C2.33366 11.5368 1.92673 11.2658 1.58379 10.9239C1.24085 10.582 0.968622 10.1759 0.782664 9.72871C0.596706 9.28157 0.500656 8.80217 0.5 8.31791C0.500525 7.83355 0.596478 7.35405 0.782377 6.90679C0.968277 6.45954 1.24048 6.05329 1.58343 5.71127C1.92639 5.36924 2.33337 5.09814 2.78113 4.91346C3.22889 4.72877 3.70865 4.63412 4.193 4.63491H4.273C4.535 2.08491 6.331 0.00490642 9.5 0.00490642" fill="#56C364"/>
</svg>
