<svg width="20" height="13" viewBox="0 0 20 13" fill="none" xmlns="http://www.w3.org/2000/svg">
<path d="M15.2071 0.5C14.7617 0.5 14.5386 1.03857 14.8536 1.35355L15.9364 2.43645C16.1317 2.63171 16.1317 2.94829 15.9364 3.14355L11.7636 7.31645C11.5683 7.51171 11.2517 7.51171 11.0564 7.31645L7.76379 4.02379C7.56844 3.82844 7.25167 3.82854 7.05645 4.02403L0.353077 10.7364C0.15804 10.9317 0.158146 11.2481 0.353315 11.4433L1.05645 12.1464C1.25171 12.3417 1.56829 12.3417 1.76355 12.1464L7.05645 6.85355C7.25171 6.65829 7.56829 6.65829 7.76355 6.85355L11.0567 10.1467C11.2519 10.3419 11.5682 10.342 11.7636 10.147L17.3564 4.56299C17.5518 4.368 17.8681 4.36812 18.0633 4.56327L19.1464 5.64645C19.4614 5.96143 20 5.73835 20 5.29289V1C20 0.723858 19.7761 0.5 19.5 0.5H15.2071Z" fill="#56C364"/>
</svg>
