<svg width="20" height="12" viewBox="0 0 20 12" fill="none" xmlns="http://www.w3.org/2000/svg">
<path d="M15.2071 12C14.7617 12 14.5386 11.4614 14.8536 11.1464L15.9364 10.0636C16.1317 9.86829 16.1317 9.55171 15.9364 9.35645L11.7636 5.18355C11.5683 4.98829 11.2517 4.98829 11.0564 5.18355L7.76379 8.47621C7.56844 8.67156 7.25167 8.67146 7.05645 8.47597L0.353077 1.76355C0.15804 1.56825 0.158146 1.25185 0.353315 1.05668L1.05645 0.353553C1.25171 0.158291 1.56829 0.158291 1.76355 0.353553L7.05645 5.64645C7.25171 5.84171 7.56829 5.84171 7.76355 5.64645L11.0567 2.35327C11.2519 2.15812 11.5682 2.15799 11.7636 2.35299L17.3564 7.93701C17.5518 8.132 17.8681 8.13188 18.0633 7.93673L19.1464 6.85355C19.4614 6.53857 20 6.76165 20 7.20711V11.5C20 11.7761 19.7761 12 19.5 12H15.2071Z" fill="#FF0000"/>
</svg>
