<svg width="28" height="25" viewBox="0 0 28 25" fill="none" xmlns="http://www.w3.org/2000/svg">
<path d="M27 16.75C27.1989 16.75 27.3897 16.671 27.5303 16.5303C27.671 16.3897 27.75 16.1989 27.75 16C27.75 15.8011 27.671 15.6103 27.5303 15.4697C27.3897 15.329 27.1989 15.25 27 15.25C24.2014 15.2479 21.4175 15.6543 18.7362 16.4563C17.804 15.854 16.8415 15.3 15.8525 14.7963C19.4112 13.4358 23.1901 12.7421 27 12.75C27.1989 12.75 27.3897 12.671 27.5303 12.5303C27.671 12.3897 27.75 12.1989 27.75 12C27.75 11.8011 27.671 11.6103 27.5303 11.4697C27.3897 11.329 27.1989 11.25 27 11.25C26.25 11.25 25.5 11.2775 24.75 11.3275V7C24.75 6.88357 24.7229 6.76873 24.6708 6.66459C24.6187 6.56045 24.5431 6.46986 24.45 6.4L16.45 0.4C16.3202 0.302634 16.1623 0.25 16 0.25C15.8377 0.25 15.6798 0.302634 15.55 0.4L7.55 6.4C7.45685 6.46986 7.38125 6.56045 7.32918 6.66459C7.27711 6.76873 7.25 6.88357 7.25 7V11.8463C5.19032 11.4495 3.09754 11.2499 1 11.25C0.801088 11.25 0.610322 11.329 0.46967 11.4697C0.329018 11.6103 0.25 11.8011 0.25 12C0.25 12.1989 0.329018 12.3897 0.46967 12.5303C0.610322 12.671 0.801088 12.75 1 12.75C5.68633 12.7407 10.3143 13.7897 14.5385 15.8189C18.7628 17.848 22.4744 20.8048 25.3962 24.4688C25.4666 24.5566 25.5558 24.6275 25.6573 24.6762C25.7588 24.7249 25.8699 24.7501 25.9825 24.75C26.1237 24.7497 26.2619 24.7095 26.3812 24.6342C26.5006 24.5588 26.5962 24.4513 26.6572 24.324C26.7182 24.1967 26.742 24.0548 26.7259 23.9145C26.7098 23.7743 26.6545 23.6414 26.5662 23.5313C25.8343 22.6181 25.0544 21.7444 24.23 20.9138C25.1494 20.8055 26.0743 20.7508 27 20.75C27.1989 20.75 27.3897 20.671 27.5303 20.5303C27.671 20.3897 27.75 20.1989 27.75 20C27.75 19.8011 27.671 19.6103 27.5303 19.4697C27.3897 19.329 27.1989 19.25 27 19.25C25.6089 19.25 24.2203 19.3666 22.8487 19.5988C22.0462 18.8779 21.2129 18.2008 20.3487 17.5675C22.5239 17.0233 24.7578 16.7487 27 16.75ZM13.75 13.82V9.75H18.25V12.4325C16.8032 12.8336 15.386 13.3348 14.0088 13.9325L13.75 13.82ZM8.75 7.375L16 1.9375L23.25 7.375V11.4638C22.0735 11.5972 20.9051 11.7946 19.75 12.055V9C19.75 8.80109 19.671 8.61032 19.5303 8.46967C19.3897 8.32902 19.1989 8.25 19 8.25H13C12.8011 8.25 12.6103 8.32902 12.4697 8.46967C12.329 8.61032 12.25 8.80109 12.25 9V13.2313C11.1042 12.8131 9.93566 12.46 8.75 12.1738V7.375ZM14.8962 24.415C14.8418 24.4971 14.7717 24.5677 14.6899 24.6227C14.6081 24.6776 14.5163 24.716 14.4198 24.7355C14.3232 24.755 14.2237 24.7553 14.127 24.7363C14.0303 24.7174 13.9383 24.6795 13.8562 24.625C10.048 22.0912 5.5742 20.7427 1 20.75C0.801088 20.75 0.610322 20.671 0.46967 20.5303C0.329018 20.3897 0.25 20.1989 0.25 20C0.25 19.8011 0.329018 19.6103 0.46967 19.4697C0.610322 19.329 0.801088 19.25 1 19.25C5.86948 19.2423 10.6321 20.6777 14.6863 23.375C14.7684 23.4295 14.8389 23.4996 14.8939 23.5814C14.9489 23.6631 14.9872 23.7549 15.0067 23.8515C15.0262 23.9481 15.0265 24.0476 15.0076 24.1442C14.9886 24.2409 14.9508 24.3329 14.8962 24.415ZM21.1213 23.4638C21.1916 23.5327 21.2477 23.6148 21.2863 23.7054C21.3249 23.796 21.3452 23.8934 21.3462 23.9919C21.3472 24.0904 21.3288 24.1881 21.292 24.2794C21.2552 24.3708 21.2008 24.454 21.1319 24.5244C21.0629 24.5947 20.9808 24.6508 20.8902 24.6894C20.7996 24.728 20.7023 24.7484 20.6038 24.7494C20.5053 24.7503 20.4076 24.7319 20.3162 24.6951C20.2248 24.6584 20.1416 24.6039 20.0713 24.535C14.9867 19.5309 8.13397 16.7336 1 16.75C0.801088 16.75 0.610322 16.671 0.46967 16.5303C0.329018 16.3897 0.25 16.1989 0.25 16C0.25 15.8011 0.329018 15.6103 0.46967 15.4697C0.610322 15.329 0.801088 15.25 1 15.25C8.52805 15.2318 15.7595 18.1833 21.125 23.4638H21.1213Z" fill="#22592A"/>
</svg>
