<svg width="30" height="30" viewBox="0 0 30 30" fill="none" xmlns="http://www.w3.org/2000/svg">
<path d="M5.66602 20.3337L12.3327 16.3337M17.666 13.667L24.3327 9.66699M14.9993 5.66699V12.3337M14.9993 17.667V24.3337M5.66602 9.66699L12.3327 13.667M17.666 16.3337L24.3327 20.3337M26.3327 11.0003V18.3337M16.9993 26.3337L24.3327 22.3337M4.99935 22.3337L12.9993 26.3337M3.66602 19.0003V11.0003M4.99935 7.66699L12.9993 3.66699M24.9993 7.66699L16.9993 3.66699" stroke="#22592A" stroke-width="1.5" stroke-linecap="round" stroke-linejoin="round"/>
<path d="M15 5.66699C16.1046 5.66699 17 4.77156 17 3.66699C17 2.56242 16.1046 1.66699 15 1.66699C13.8954 1.66699 13 2.56242 13 3.66699C13 4.77156 13.8954 5.66699 15 5.66699Z" stroke="#22592A" stroke-width="1.5" stroke-linecap="round" stroke-linejoin="round"/>
<path d="M15 28.334C16.1046 28.334 17 27.4386 17 26.334C17 25.2294 16.1046 24.334 15 24.334C13.8954 24.334 13 25.2294 13 26.334C13 27.4386 13.8954 28.334 15 28.334Z" stroke="#22592A" stroke-width="1.5" stroke-linecap="round" stroke-linejoin="round"/>
<path d="M3.66602 11C4.77059 11 5.66602 10.1046 5.66602 9C5.66602 7.89543 4.77059 7 3.66602 7C2.56145 7 1.66602 7.89543 1.66602 9C1.66602 10.1046 2.56145 11 3.66602 11Z" stroke="#22592A" stroke-width="1.5" stroke-linecap="round" stroke-linejoin="round"/>
<path d="M26.332 11C27.4366 11 28.332 10.1046 28.332 9C28.332 7.89543 27.4366 7 26.332 7C25.2275 7 24.332 7.89543 24.332 9C24.332 10.1046 25.2275 11 26.332 11Z" stroke="#22592A" stroke-width="1.5" stroke-linecap="round" stroke-linejoin="round"/>
<path d="M26.332 23C27.4366 23 28.332 22.1046 28.332 21C28.332 19.8954 27.4366 19 26.332 19C25.2275 19 24.332 19.8954 24.332 21C24.332 22.1046 25.2275 23 26.332 23Z" stroke="#22592A" stroke-width="1.5" stroke-linecap="round" stroke-linejoin="round"/>
<path d="M3.66602 23C4.77059 23 5.66602 22.1046 5.66602 21C5.66602 19.8954 4.77059 19 3.66602 19C2.56145 19 1.66602 19.8954 1.66602 21C1.66602 22.1046 2.56145 23 3.66602 23Z" stroke="#22592A" stroke-width="1.5" stroke-linecap="round" stroke-linejoin="round"/>
<path d="M14.9987 12L17.6654 13.5V16.5L14.9987 18L12.332 16.5V13.5L14.9987 12Z" stroke="#22592A" stroke-width="1.5" stroke-linecap="round" stroke-linejoin="round"/>
</svg>
