<svg width="26" height="22" viewBox="0 0 26 22" fill="none" xmlns="http://www.w3.org/2000/svg">
<path fill-rule="evenodd" clip-rule="evenodd" d="M0.352188 3.00306C0.452188 4.79706 0.962855 5.90773 1.71085 6.59239C1.52344 6.73044 1.37769 6.91745 1.2896 7.13291C1.20152 7.34836 1.1745 7.58392 1.21152 7.81373C1.59285 10.2371 2.54685 15.3624 4.50286 21.1397C4.57918 21.3891 4.73352 21.6074 4.94318 21.7625C5.15284 21.9176 5.40674 22.0013 5.66752 22.0013C5.92831 22.0013 6.1822 21.9176 6.39186 21.7625C6.60152 21.6074 6.75586 21.3891 6.83219 21.1397C8.78752 15.3624 9.74219 10.2371 10.1235 7.81373C10.1605 7.58392 10.1335 7.34836 10.0454 7.13291C9.95735 6.91745 9.8116 6.73044 9.62419 6.59239C10.3722 5.90773 10.8829 4.79706 10.9829 3.00306C10.9869 2.91597 10.973 2.82898 10.942 2.74749C10.911 2.666 10.8636 2.59175 10.8027 2.52936C10.7418 2.46696 10.6687 2.41776 10.588 2.38479C10.5073 2.35182 10.4207 2.3358 10.3335 2.33773C9.24752 2.35373 8.38552 2.41973 7.71352 2.64573C7.43552 1.91306 6.87485 1.22173 6.03152 0.591059C5.92651 0.512301 5.79879 0.469727 5.66752 0.469727C5.53626 0.469727 5.40853 0.512301 5.30352 0.591059C4.46686 1.21706 3.90819 1.90173 3.62819 2.62773C2.97485 2.43506 2.12019 2.35839 1.00352 2.33906C0.91631 2.33687 0.829581 2.35265 0.748727 2.38541C0.667873 2.41817 0.594623 2.46721 0.533533 2.52949C0.472443 2.59177 0.424818 2.66595 0.39362 2.74742C0.362423 2.82889 0.34832 2.91591 0.352188 3.00306ZM6.92152 4.31839L6.46619 3.11839C6.34019 2.78573 6.09419 2.41173 5.66752 2.01839C5.24485 2.40773 4.99952 2.77839 4.87219 3.10773L4.43019 4.25439L3.25152 3.90639C2.90352 3.80373 2.42885 3.73573 1.76152 3.69906C1.95952 4.98439 2.43619 5.52773 2.87019 5.80839C3.49152 6.21039 4.39685 6.33239 5.64752 6.33373H5.68752C6.93885 6.33239 7.84352 6.21039 8.46419 5.80839C8.89885 5.52773 9.37619 4.98373 9.57419 3.69506C8.92752 3.72906 8.47352 3.79639 8.13819 3.90906L6.92152 4.31839ZM2.53819 7.66706H8.79685C8.60552 8.87173 8.27419 10.7337 7.75019 13.0004H5.00085V14.3337H7.43085C6.97085 16.1884 6.39085 18.2551 5.66752 20.4204C5.43649 19.728 5.21536 19.0324 5.00419 18.3337H5.66752V17.0004H4.61285C4.05125 15.019 3.56269 13.0177 3.14819 11.0004H5.00085V9.66706H2.88552C2.76026 9.00207 2.64447 8.33534 2.53819 7.66706Z" fill="#22592A"/>
<path d="M22.4955 13.6871C22.667 13.7299 22.8144 13.8391 22.9055 13.9906C22.9965 14.1421 23.0236 14.3236 22.9808 14.4951C22.795 15.259 22.4027 15.9571 21.8468 16.513C21.2909 17.0689 20.5928 17.4612 19.8288 17.6471C19.6585 17.6866 19.4795 17.6576 19.3304 17.5663C19.1812 17.4751 19.0739 17.3289 19.0315 17.1593C18.9891 16.9897 19.015 16.8102 19.1037 16.6595C19.1923 16.5089 19.3367 16.399 19.5055 16.3537C20.035 16.2266 20.5191 15.9554 20.9042 15.5704C21.2892 15.1853 21.5603 14.7012 21.6875 14.1717C21.7305 14.0004 21.8397 13.8531 21.9912 13.7622C22.1427 13.6713 22.3241 13.6443 22.4955 13.6871Z" fill="#22592A"/>
<path fill-rule="evenodd" clip-rule="evenodd" d="M18.7667 9.01798C18.028 7.28931 18.156 5.45331 19.4713 4.13798L18.5287 3.19531C16.9753 4.74865 16.706 6.77998 17.2267 8.64731C14.176 7.26665 11 9.80531 11 13.6666C11 17.3486 14.2833 20.3333 18.3333 20.3333C22.3833 20.3333 25.6667 17.3486 25.6667 13.6666C25.6667 9.51998 22.0033 6.89931 18.7667 9.01798ZM18.3333 11.0406L17.5 10.374C16.2613 9.38331 15.0413 9.43865 14.1173 10.0093C13.14 10.6126 12.3333 11.9046 12.3333 13.6666C12.3333 16.4953 14.8973 19 18.3333 19C21.7693 19 24.3333 16.4953 24.3333 13.6666C24.3333 11.9053 23.5267 10.6133 22.5493 10.0093C21.6253 9.43865 20.4047 9.38331 19.166 10.3746L18.3333 11.0406Z" fill="#22592A"/>
<path d="M19.668 7.00033C21.668 7.00033 23.0013 5.66699 23.0013 3.66699C21.0013 3.66699 19.668 5.00033 19.668 7.00033Z" fill="#22592A"/>
</svg>
