<svg width="24" height="24" viewBox="0 0 24 24" fill="none" xmlns="http://www.w3.org/2000/svg">
<path d="M22.0075 19.9237V9.81566C22.4362 9.80023 22.8485 9.64643 23.1825 9.37725C23.5166 9.10807 23.7546 8.73798 23.8608 8.32232C23.9794 7.89838 23.9518 7.44687 23.7825 7.04052C23.6132 6.63416 23.312 6.29664 22.9275 6.08233L12.9941 0.348993C12.6909 0.178451 12.3488 0.0888672 12.0008 0.0888672C11.6529 0.0888672 11.3108 0.178451 11.0075 0.348993L1.07414 6.08233C0.68962 6.29664 0.388442 6.63416 0.219129 7.04052C0.0498164 7.44687 0.0222277 7.89838 0.140808 8.32232C0.250699 8.75102 0.500581 9.13074 0.850818 9.40127C1.20106 9.6718 1.63159 9.81764 2.07414 9.81566H2.24747V19.909H2.08747C1.55704 19.909 1.04833 20.1197 0.673261 20.4948C0.298188 20.8699 0.0874745 21.3786 0.0874745 21.909C0.0874745 22.4394 0.298188 22.9481 0.673261 23.3232C1.04833 23.6983 1.55704 23.909 2.08747 23.909H21.9141C22.4152 23.8794 22.8868 23.6625 23.2354 23.3013C23.5839 22.9401 23.7839 22.4611 23.7957 21.9593C23.8074 21.4575 23.6301 20.9696 23.2988 20.5925C22.9675 20.2154 22.5066 19.9767 22.0075 19.9237ZM2.07414 8.48233C1.92719 8.48045 1.78488 8.43054 1.66894 8.34023C1.553 8.24991 1.4698 8.12414 1.43202 7.98211C1.39425 7.84008 1.40398 7.68959 1.45973 7.55361C1.51549 7.41763 1.6142 7.30362 1.74081 7.22899L11.6741 1.51033C11.7725 1.45024 11.8855 1.41845 12.0008 1.41845C12.1161 1.41845 12.2291 1.45024 12.3275 1.51033L22.2675 7.22899C22.3994 7.3001 22.5036 7.4136 22.5631 7.55117C22.6226 7.68875 22.634 7.84237 22.5955 7.98723C22.557 8.13209 22.4708 8.25974 22.3508 8.34957C22.2308 8.4394 22.084 8.48617 21.9341 8.48233H2.07414ZM20.6741 9.81566V19.909H15.8675V9.81566H20.6741ZM14.5275 9.81566V19.909H9.71414V9.81566H14.5275ZM8.38081 9.81566V19.909H3.58081V9.81566H8.38081ZM21.9141 22.5757H2.08747C1.91066 22.5757 1.74109 22.5054 1.61607 22.3804C1.49105 22.2554 1.42081 22.0858 1.42081 21.909C1.42081 21.7322 1.49105 21.5626 1.61607 21.4376C1.74109 21.3126 1.91066 21.2423 2.08747 21.2423H21.9141C22.091 21.2423 22.2605 21.3126 22.3855 21.4376C22.5106 21.5626 22.5808 21.7322 22.5808 21.909C22.5808 22.0858 22.5106 22.2554 22.3855 22.3804C22.2605 22.5054 22.091 22.5757 21.9141 22.5757Z" fill="#22592A"/>
</svg>
