<svg width="30" height="28" viewBox="0 0 30 28" fill="none" xmlns="http://www.w3.org/2000/svg">
<path d="M22.9275 17.0363C22.4489 15.3014 21.4143 13.7714 19.9825 12.6811C18.5507 11.5908 16.8006 11.0003 15.0009 11.0003C13.2012 11.0003 11.4512 11.5908 10.0194 12.6811C8.58753 13.7714 7.55296 15.3014 7.07437 17.0363L5.93387 21.1707C5.72909 21.913 5.69854 22.6926 5.8446 23.4487C5.99065 24.2047 6.30936 24.9169 6.77588 25.5295C7.2424 26.1421 7.84412 26.6387 8.53412 26.9806C9.22412 27.3225 9.98376 27.5003 10.7538 27.5003H19.2481C20.0181 27.5003 20.7777 27.3225 21.4677 26.9806C22.1577 26.6387 22.7595 26.1421 23.226 25.5295C23.6925 24.9169 24.0112 24.2047 24.1573 23.4487C24.3033 22.6926 24.2728 21.913 24.068 21.1707L22.9275 17.0363ZM21.6349 24.3176C21.3562 24.6865 20.9954 24.9855 20.5811 25.1908C20.1668 25.3961 19.7104 25.502 19.2481 25.5003H10.7538C10.2918 25.5003 9.83598 25.3936 9.42197 25.1885C9.00796 24.9834 8.64692 24.6854 8.36701 24.3178C8.08709 23.9502 7.89586 23.523 7.80823 23.0693C7.7206 22.6157 7.73893 22.1479 7.86181 21.7025L9.00231 17.5682C9.3645 16.2553 10.1474 15.0974 11.231 14.2723C12.3146 13.4471 13.639 13.0003 15.0009 13.0003C16.3629 13.0003 17.6873 13.4471 18.7708 14.2723C19.8544 15.0974 20.6374 16.2553 20.9996 17.5682L22.1401 21.7025C22.2647 22.1477 22.2839 22.6159 22.1963 23.0698C22.1086 23.5238 21.9164 23.9511 21.6349 24.3178V24.3176ZM8.13218 12.3947C8.30618 11.3072 8.07543 10.143 7.48218 9.11576C6.88893 8.08851 5.99593 7.30658 4.96737 6.91351C3.86587 6.49283 2.74237 6.55983 1.80274 7.10208C-0.0651944 8.18058 -0.556757 10.8386 0.707181 13.0274C1.30024 14.0546 2.19331 14.8368 3.22187 15.2296C3.6775 15.4072 4.16181 15.4998 4.65081 15.5028C5.26002 15.505 5.85893 15.3457 6.38649 15.041C7.32556 14.4987 7.94556 13.5589 8.13218 12.3947ZM6.15718 12.0786C6.06781 12.6366 5.79406 13.0736 5.38637 13.309C4.97868 13.5443 4.46343 13.5628 3.93531 13.3613C3.33449 13.1318 2.80312 12.6581 2.43899 12.0274C1.73899 10.8149 1.90537 9.35239 2.80274 8.83414C3.02833 8.70612 3.28382 8.64018 3.54318 8.64301C3.78648 8.64553 4.02727 8.69249 4.25368 8.78158C4.85449 9.01114 5.38587 9.48483 5.74999 10.1155C6.11412 10.7462 6.25868 11.4435 6.15718 12.0786ZM8.34881 8.25139C9.05893 8.81908 9.86987 9.1147 10.6899 9.11464C10.9356 9.11456 11.1805 9.08814 11.4205 9.03583C13.5282 8.57764 14.8061 6.19564 14.2692 3.72595C14.0174 2.56683 13.405 1.54989 12.545 0.862327C11.6241 0.126077 10.5332 -0.15261 9.47331 0.07789C7.36568 0.536015 6.08774 2.91802 6.62456 5.3877C6.87649 6.54689 7.48887 7.56383 8.34881 8.25139ZM9.89806 2.03226C9.99524 2.01131 10.0944 2.00083 10.1938 2.00101C10.5656 2.00101 10.9479 2.14645 11.2961 2.42483C11.7984 2.82639 12.1602 3.43945 12.3149 4.15114C12.6124 5.51958 12.0082 6.86164 10.9957 7.08176C10.5356 7.18176 10.0391 7.04252 9.59774 6.68958C9.09543 6.28795 8.73362 5.67489 8.57899 4.96326C8.28143 3.59445 8.88556 2.25239 9.89806 2.03226ZM28.1991 7.10208C27.2599 6.55983 26.1358 6.49283 25.0345 6.91351C24.0059 7.30645 23.1129 8.08851 22.5198 9.11576C21.9267 10.143 21.6959 11.3075 21.8698 12.3947C22.0562 13.5589 22.6761 14.4987 23.6155 15.041C24.143 15.3457 24.742 15.5051 25.3512 15.5028C25.8402 15.4998 26.3245 15.4072 26.7801 15.2296C27.8087 14.8368 28.7017 14.0546 29.2948 13.0274C30.5586 10.8386 30.0671 8.18058 28.1991 7.10208ZM27.5629 12.0274C27.1987 12.6581 26.6674 13.1318 26.0666 13.3613C25.5387 13.563 25.0233 13.5445 24.6156 13.309C24.2079 13.0735 23.9344 12.6366 23.8448 12.0786C23.7432 11.4435 23.8877 10.7465 24.2519 10.1161C24.6161 9.4857 25.1474 9.0117 25.7482 8.78214C25.9746 8.69297 26.2154 8.64593 26.4587 8.64333C26.718 8.64049 26.9735 8.70644 27.1991 8.83445C28.0965 9.35226 28.2631 10.8146 27.5629 12.0274ZM18.5814 9.03583C18.8214 9.08814 19.0663 9.11456 19.3119 9.11464C20.1319 9.11464 20.9432 8.81908 21.6531 8.25139C22.513 7.56389 23.1254 6.54689 23.3773 5.38776C23.9141 2.91808 22.6362 0.536077 20.5286 0.0779525C19.4687 -0.152423 18.3778 0.126077 17.4569 0.86239C16.5969 1.54989 15.9845 2.56689 15.7326 3.72595C15.1957 6.19564 16.4737 8.57764 18.5814 9.03583ZM17.687 4.15083C17.8416 3.43914 18.2034 2.82583 18.7057 2.42452C19.054 2.14614 19.4363 2.0007 19.8081 2.0007C19.9075 2.00052 20.0066 2.011 20.1038 2.03195C21.1163 2.25208 21.7204 3.59445 21.423 4.96258C21.2682 5.67427 20.9064 6.28758 20.4042 6.68895C19.9629 7.04183 19.4667 7.18108 19.0063 7.08114C17.9936 6.86133 17.3895 5.51908 17.687 4.15083Z" fill="#22592A"/>
</svg>
