<svg width="29" height="30" viewBox="0 0 29 30" fill="none" xmlns="http://www.w3.org/2000/svg">
<path d="M1 23.288L6.58629 27.944C7.40779 28.628 8.44302 29.0024 9.512 29.0023H24.2389C25.2903 29.0023 26.1429 28.1497 26.1429 27.0983C26.1429 24.9954 24.4377 23.288 22.3326 23.288H12.0949M18.6731 1.00229C18.37 1.00229 18.0793 1.12269 17.865 1.33702C17.6507 1.55135 17.5303 1.84204 17.5303 2.14514V5.36114H14.3166C14.0135 5.36114 13.7228 5.48155 13.5084 5.69588C13.2941 5.91021 13.1737 6.2009 13.1737 6.504V10.2183C13.1737 10.5214 13.2941 10.8121 13.5084 11.0264C13.7228 11.2407 14.0135 11.3611 14.3166 11.3611H17.5303V14.5749C17.5303 14.878 17.6507 15.1687 17.865 15.383C18.0793 15.5973 18.37 15.7177 18.6731 15.7177H22.3874C22.6905 15.7177 22.9812 15.5973 23.1956 15.383C23.4099 15.1687 23.5303 14.878 23.5303 14.5749V11.3611H26.744C27.0471 11.3611 27.3378 11.2407 27.5521 11.0264C27.7665 10.8121 27.8869 10.5214 27.8869 10.2183V6.504C27.8869 6.2009 27.7665 5.91021 27.5521 5.69588C27.3378 5.48155 27.0471 5.36114 26.744 5.36114H23.5303V2.14286C23.5303 1.83975 23.4099 1.54906 23.1956 1.33474C22.9812 1.12041 22.6905 1 22.3874 1L18.6731 1.00229Z" stroke="#22592A" stroke-width="1.52" stroke-linecap="round" stroke-linejoin="round"/>
<path d="M7.85714 21.0023L9.57143 22.7166C9.79655 22.9417 10.0638 23.1203 10.3579 23.2421C10.6521 23.3639 10.9673 23.4266 11.2857 23.4266C11.6041 23.4266 11.9193 23.3639 12.2135 23.2421C12.5076 23.1203 12.7749 22.9417 13 22.7166C13.2251 22.4914 13.4037 22.2242 13.5255 21.93C13.6474 21.6359 13.7101 21.3207 13.7101 21.0023C13.7101 20.6839 13.6474 20.3687 13.5255 20.0745C13.4037 19.7804 13.2251 19.5131 13 19.288L10.3394 16.6274C9.48232 15.7701 8.31975 15.2883 7.10743 15.288H1" stroke="#22592A" stroke-width="1.52" stroke-linecap="round" stroke-linejoin="round"/>
</svg>
