<svg width="28" height="26" viewBox="0 0 28 26" fill="none" xmlns="http://www.w3.org/2000/svg">
<path fill-rule="evenodd" clip-rule="evenodd" d="M13.1804 18.1177L12.7004 8.3597H15.3004L14.8004 18.1197L13.1804 18.1177ZM13.9684 21.9197C13.8014 21.9235 13.6354 21.8923 13.4811 21.8283C13.3268 21.7642 13.1876 21.6687 13.0724 21.5477C12.9524 21.4334 12.8574 21.2955 12.7934 21.1426C12.7294 20.9898 12.6977 20.8254 12.7004 20.6597C12.7004 20.3117 12.8244 20.0144 13.0724 19.7677C13.1879 19.6475 13.3273 19.5526 13.4816 19.4893C13.6359 19.4259 13.8016 19.3954 13.9684 19.3997C14.3057 19.3997 14.599 19.521 14.8484 19.7637C15.0964 20.0064 15.2204 20.305 15.2204 20.6597C15.2228 20.8265 15.1905 20.992 15.1254 21.1455C15.0603 21.2991 14.9639 21.4375 14.8424 21.5517C14.7293 21.6692 14.5935 21.7624 14.4433 21.8257C14.293 21.889 14.1314 21.921 13.9684 21.9197ZM2.00037 25.9997C1.65335 25.9998 1.31228 25.9095 1.01069 25.7379C0.709095 25.5662 0.457356 25.319 0.280211 25.0206C0.103066 24.7222 0.00661187 24.3829 0.000327999 24.0359C-0.00595587 23.689 0.0781467 23.3463 0.24437 23.0417L12.2444 1.0417C12.4164 0.726171 12.6702 0.462819 12.9793 0.279337C13.2883 0.0958554 13.641 -0.000976562 14.0004 -0.000976562C14.3597 -0.000976562 14.7125 0.0958554 15.0215 0.279337C15.3305 0.462819 15.5844 0.726171 15.7564 1.0417L27.7564 23.0417C27.9226 23.3463 28.0067 23.689 28.0004 24.0359C27.9941 24.3829 27.8977 24.7222 27.7205 25.0206C27.5434 25.319 27.2916 25.5662 26.9901 25.7379C26.6885 25.9095 26.3474 25.9998 26.0004 25.9997H2.00037ZM2.00037 23.9997H26.0004L14.0004 1.9997L2.00037 23.9997Z" fill="#22592A"/>
</svg>
