<svg width="40" height="32" viewBox="0 0 40 32" fill="none" xmlns="http://www.w3.org/2000/svg">
<path d="M0 32H15.1771V18.2636C15.1771 16.902 15.0705 15.5003 14.8571 14.0586C14.6438 12.6169 14.2933 11.2285 13.8057 9.89362C13.3181 8.5587 12.6933 7.27717 11.9314 6.04904C11.1695 4.8209 10.2248 3.77966 9.09714 2.92531C7.96952 2.07096 6.68952 1.36345 5.25714 0.802776C3.82476 0.242107 2.14857 -0.0248756 0.228571 0.00182152V6.28932C1.35619 6.28932 2.33143 6.47621 3.15429 6.84999C3.97714 7.22377 4.69333 7.73104 5.30286 8.37181C5.91238 9.01257 6.36952 9.74678 6.67429 10.5744C6.97905 11.4021 7.25333 12.2564 7.49714 13.1375C7.74095 14.0185 7.8781 14.8996 7.90857 15.7806C7.93905 16.6617 7.98476 17.4894 8.04571 18.2636H0V32ZM40 32V18.2636C40 16.1811 39.7562 14.0586 39.2686 11.896C38.781 9.73343 37.9581 7.77109 36.8 6.00899C35.6419 4.24689 34.1181 2.80517 32.2286 1.68383C30.339 0.56249 27.9467 0.00182152 25.0514 0.00182152V6.28932C26.7276 6.28932 28.0838 6.6898 29.12 7.49076C30.1562 8.29171 30.9638 9.30626 31.5429 10.5344C32.1219 11.7625 32.5029 13.0707 32.6857 14.4591C32.8686 15.8474 32.9752 17.1156 33.0057 18.2636H24.96V32H40Z" fill="#22592A"/>
</svg>
