<svg width="21" height="13" viewBox="0 0 21 13" fill="none" xmlns="http://www.w3.org/2000/svg">
                            <path d="M15.7071 0.5C15.2617 0.5 15.0386 1.03857 15.3536 1.35355L16.4364 2.43645C16.6317 2.63171 16.6317 2.94829 16.4364 3.14355L12.2636 7.31645C12.0683 7.51171 11.7517 7.51171 11.5564 7.31645L8.26379 4.02379C8.06844 3.82844 7.75167 3.82854 7.55645 4.02403L0.853077 10.7364C0.65804 10.9317 0.658146 11.2481 0.853315 11.4433L1.55645 12.1464C1.75171 12.3417 2.06829 12.3417 2.26355 12.1464L7.55645 6.85355C7.75171 6.65829 8.06829 6.65829 8.26355 6.85355L11.5567 10.1467C11.7519 10.3419 12.0682 10.342 12.2636 10.147L17.8564 4.56299C18.0518 4.368 18.3681 4.36812 18.5633 4.56327L19.6464 5.64645C19.9614 5.96143 20.5 5.73835 20.5 5.29289V1C20.5 0.723858 20.2761 0.5 20 0.5H15.7071Z" fill="#56C364" />
                        </svg>